<svg width="17" height="17" viewBox="0 0 17 17" fill="none" xmlns="http://www.w3.org/2000/svg">
<path d="M8.64648 3.60636C9.32726 3.60636 9.9815 3.73373 10.6092 3.98847L11.045 2.91438C10.2775 2.60297 9.47794 2.44727 8.64648 2.44727C7.81477 2.44727 7.01513 2.60297 6.24755 2.91438C5.45267 3.23661 4.74962 3.70333 4.13839 4.31456C3.52717 4.92579 3.06044 5.62897 2.73821 6.42411C2.42706 7.19142 2.27148 7.99081 2.27148 8.82227C2.27148 9.65424 2.42706 10.4539 2.73821 11.2212L2.73976 11.2204L3.1748 12.2914L5.68037 11.2734L5.24378 10.1993L3.81076 10.7815C3.5573 10.1551 3.43058 9.50214 3.43058 8.82265C3.43058 8.14162 3.55782 7.48725 3.8123 6.85954C4.0758 6.20967 4.45779 5.63464 4.95826 5.13442C5.45873 4.63396 6.03376 4.25197 6.68337 3.98847C7.31108 3.73373 7.96533 3.60636 8.6461 3.60636H8.64648ZM13.4818 6.8634L12.0496 7.44527L11.613 6.37117L14.1189 5.35311L14.554 6.42411H14.5544C14.8658 7.19142 15.0215 7.99081 15.0215 8.82227C15.0215 9.65424 14.8658 10.4539 14.5544 11.2212C14.2321 12.0161 13.7654 12.7191 13.1542 13.3304C12.543 13.9416 11.8398 14.4083 11.0446 14.7305C10.2773 15.0417 9.47794 15.1973 8.64648 15.1973C7.81477 15.1973 7.01513 15.0417 6.24755 14.7305L6.68337 13.6564C7.31108 13.9109 7.96533 14.0382 8.6461 14.0382C9.32713 14.0382 9.9815 13.9109 10.6092 13.6564C11.2591 13.3929 11.8342 13.011 12.3347 12.5105C12.8349 12.0103 13.2168 11.4352 13.4803 10.7854C13.735 10.1577 13.8624 9.50343 13.8624 8.82265C13.8624 8.14291 13.7355 7.4897 13.4818 6.86302V6.8634ZM5.79512 12.1709H6.89703L7.47348 10.2391H9.84576L10.4226 12.1709H11.5604L9.29944 5.40952H8.05612L5.79512 12.1709ZM7.73312 9.3879L8.00164 8.48845C8.22187 7.76092 8.4363 7.02722 8.64146 6.26377H8.67778C8.89221 7.01833 9.09428 7.76092 9.3176 8.48845L9.58612 9.3879H7.73312Z" fill="black"/>
</svg>
