<svg width="18" height="18" viewBox="0 0 18 18" fill="none" xmlns="http://www.w3.org/2000/svg">
<path d="M8.98219 1.13281C4.6704 1.13281 1.14258 4.66063 1.14258 8.97242C1.14258 13.2842 4.6704 16.812 8.98219 16.812C13.294 16.812 16.8218 13.2842 16.8218 8.97242C16.8218 4.66063 13.294 1.13281 8.98219 1.13281ZM8.98219 15.2441C5.53275 15.2441 2.7105 12.4219 2.7105 8.97242C2.7105 5.52299 5.53275 2.70074 8.98219 2.70074C12.4316 2.70074 15.2539 5.52299 15.2539 8.97242C15.2539 12.4219 12.4317 15.2441 8.98219 15.2441Z" fill="#0E932E"/>
<path d="M8.94911 11.2737C8.81863 11.4042 8.64767 11.4695 8.47672 11.4695C8.30574 11.4695 8.13477 11.4042 8.00432 11.2737L5.77709 9.04649C5.63962 8.90907 5.57913 8.72726 5.58654 8.54755C5.59309 8.38573 5.65355 8.22526 5.77709 8.10174C5.90061 7.97812 6.0611 7.91767 6.22293 7.91112C6.40261 7.90378 6.58445 7.9642 6.72188 8.10174L8.47672 9.85648L11.5679 6.76537C11.7053 6.62791 11.8872 6.56741 12.0668 6.57482C12.2287 6.58141 12.3892 6.64183 12.5127 6.76537C12.6362 6.88889 12.6967 7.04945 12.7032 7.21121C12.7106 7.39089 12.6501 7.57273 12.5127 7.7102L8.94911 11.2737Z" fill="#0E932E"/>
</svg>
