<svg width="17" height="19" viewBox="0 0 17 19" fill="none" xmlns="http://www.w3.org/2000/svg">
<path d="M15.4754 4.00615H11.8892V3.90923C11.8892 1.74462 10.1446 0 7.98 0C5.81538 0 4.07077 1.74462 4.07077 3.90923V4.00615H0.646154C0.290769 4.00615 0 4.29692 0 4.65231C0 5.00769 0.290769 5.29846 0.646154 5.29846H1.90615C1.90615 5.36308 1.87385 5.46 1.87385 5.52462V16.8646C1.87385 17.7046 2.55231 18.3831 3.39231 18.3831H12.7292C13.5692 18.3831 14.2477 17.7046 14.2477 16.8646V5.52462C14.2477 5.42769 14.2477 5.36308 14.2154 5.29846H15.4754C15.8308 5.29846 16.1215 5.00769 16.1215 4.65231C16.1215 4.29692 15.8308 4.00615 15.4754 4.00615ZM5.36308 3.90923C5.36308 2.45538 6.52615 1.29231 7.98 1.29231C9.43385 1.29231 10.5969 2.45538 10.5969 3.90923V3.94154H5.36308V3.90923ZM12.9554 5.52462V16.8646C12.9554 16.9938 12.8585 17.0908 12.7292 17.0908H3.39231C3.26308 17.0908 3.16615 16.9938 3.16615 16.8646V5.52462C3.16615 5.39538 3.26308 5.29846 3.39231 5.29846H12.7292C12.8585 5.29846 12.9554 5.39538 12.9554 5.52462Z" fill="black"/>
<path d="M6.04069 13.4078C6.39607 13.4078 6.68684 13.1171 6.68684 12.7617V8.01245C6.68684 7.65706 6.39607 7.36629 6.04069 7.36629C5.6853 7.36629 5.39453 7.65706 5.39453 8.01245V12.7617C5.39453 13.1171 5.6853 13.4078 6.04069 13.4078ZM10.0145 13.3755C10.3699 13.3755 10.6607 13.0848 10.6607 12.7294V7.98014C10.6607 7.62475 10.3699 7.33398 10.0145 7.33398C9.65915 7.33398 9.36838 7.62475 9.36838 7.98014V12.7294C9.36838 13.0848 9.65915 13.3755 10.0145 13.3755Z" fill="black"/>
</svg>
