<svg width="22" height="22" viewBox="0 0 22 22" fill="none" xmlns="http://www.w3.org/2000/svg">
<path d="M10.7188 0C4.8125 0 0 4.8125 0 10.7188C0 16.625 4.8125 21.4375 10.7188 21.4375C16.625 21.4375 21.4375 16.625 21.4375 10.7188C21.4375 4.8125 16.625 0 10.7188 0ZM10.7188 20.125C5.5125 20.125 1.3125 15.925 1.3125 10.7188C1.3125 5.5125 5.5125 1.3125 10.7188 1.3125C15.925 1.3125 20.125 5.5125 20.125 10.7188C20.125 15.925 15.925 20.125 10.7188 20.125Z" fill="white"/>
<path d="M9.49375 14.6562H12.075V17.15H9.49375V14.6562ZM13.7813 5.29375C12.9063 4.68125 11.8563 4.375 10.5438 4.375C9.58125 4.375 8.75 4.59375 8.05 5.03125C7 5.73125 6.43125 6.86875 6.34375 8.4875H8.8375C8.8375 8.00625 8.96875 7.56875 9.23125 7.13125C9.49375 6.69375 9.975 6.475 10.6312 6.475C11.2875 6.475 11.7688 6.65 12.0313 7C12.2938 7.35 12.425 7.74375 12.425 8.18125C12.425 8.575 12.2937 8.925 12.075 9.23125C11.9437 9.40625 11.7688 9.58125 11.5938 9.75625L10.9812 10.2375C10.3687 10.7187 9.975 11.1562 9.84375 11.5062C9.7125 11.8562 9.625 12.5562 9.58125 13.5188H11.9C11.9 13.0813 11.9438 12.7312 12.0313 12.5125C12.1188 12.1625 12.3375 11.8562 12.6875 11.5937L13.3 11.1125C13.9125 10.6313 14.35 10.2375 14.5688 9.93125C14.9187 9.40625 15.1375 8.79375 15.1375 8.05C15.05 6.825 14.6563 5.95 13.7813 5.29375Z" fill="white"/>
</svg>
