<svg width="36" height="37" viewBox="0 0 36 37" fill="none" xmlns="http://www.w3.org/2000/svg">
<path d="M29.7125 16.9163L23.9429 26.9097L24.0108 30.8678L27.4703 28.944L33.239 18.9506L29.7116 16.9163H29.7125ZM31.7507 13.3888L30.3926 15.7415L33.9209 17.7767L35.2781 15.424L31.7507 13.3888ZM18.7398 23.1875H7.2739C6.56876 23.1875 6 23.7567 6 24.4614C6 25.1657 6.5692 25.7353 7.2739 25.7353H18.7398C19.445 25.7353 20.0137 25.1653 20.0137 24.4614C20.0137 23.7567 19.445 23.1875 18.7398 23.1875ZM7.2739 14.1834C6.56876 14.1834 6 14.7526 6 15.4573C6 16.1616 6.5692 16.7312 7.2739 16.7312H22.562C23.2671 16.7312 23.8359 16.1612 23.8359 15.4573C23.8359 14.7526 23.2667 14.1834 22.562 14.1834H7.2739ZM9.80985 0C10.5137 0 11.0837 0.570513 11.0837 1.2739V6.36992C11.0837 7.07374 10.5132 7.64382 9.80985 7.64382C9.10603 7.64382 8.53595 7.0733 8.53595 6.36992V1.2739C8.53595 0.570513 9.10603 0 9.80985 0ZM12.3581 3.18496H17.4541V5.73319H12.3581V3.18496ZM20.0019 0C20.7057 0 21.2758 0.570513 21.2758 1.2739V6.36992C21.2758 7.07374 20.7053 7.64382 20.0019 7.64382C19.2981 7.64382 18.728 7.0733 18.728 6.36992V1.2739C18.728 0.570513 19.2985 0 20.0019 0Z" fill="white"/>
<path d="M28.0283 32.3022C28.0283 33.0074 27.4592 33.5761 26.7545 33.5761H3.82213C3.11699 33.5761 2.54823 33.0069 2.54823 32.3022V6.82213C2.54823 6.11699 3.11743 5.54823 3.82213 5.54823H7.64426V3H3.82213C1.71154 3.00044 0.000438519 4.71154 0 6.82213V32.3022C0 34.412 1.71241 36.1244 3.82213 36.1244H26.754C28.8637 36.1244 30.5761 34.412 30.5761 32.3022V25.2443L28.0279 29.6746L28.0283 32.3022ZM30.5761 6.82213C30.5761 4.71241 28.8637 3 26.754 3H22.9319V5.54823H26.754C27.4592 5.54823 28.0279 6.11743 28.0279 6.82213V19.2037L30.5761 14.7729V6.82213Z" fill="white"/>
</svg>
