<svg width="44" height="44" viewBox="0 0 44 44" fill="none" xmlns="http://www.w3.org/2000/svg">
<path d="M21.3954 40.4246C11.2644 40.4246 3.02539 32.1856 3.02539 22.0546C3.02539 11.9236 11.2644 3.68457 21.3954 3.68457C22.6824 3.68457 23.9694 3.81657 25.2234 4.08057C25.9384 4.23457 26.3894 4.92757 26.2464 5.64257C26.0924 6.35757 25.3994 6.80857 24.6844 6.66557C23.6174 6.43457 22.5064 6.32457 21.4064 6.32457C12.7274 6.32457 5.67639 13.3756 5.67639 22.0546C5.67639 30.7336 12.7274 37.7846 21.4064 37.7846C30.0854 37.7846 37.1364 30.7336 37.1364 22.0546C37.1364 21.0316 37.0374 20.0086 36.8394 19.0076C36.6964 18.2926 37.1694 17.5996 37.8844 17.4566C38.5994 17.3136 39.2924 17.7866 39.4354 18.5016C39.6664 19.6676 39.7764 20.8556 39.7764 22.0546C39.7654 32.1746 31.5154 40.4246 21.3954 40.4246Z" fill="#959595"/>
<path d="M21.3954 32.1746C15.8184 32.1746 11.2754 27.6316 11.2754 22.0546C11.2754 16.4776 15.8184 11.9346 21.3954 11.9346C22.2864 11.9346 23.1774 12.0556 24.0354 12.2866C24.7394 12.4736 25.1574 13.1996 24.9704 13.9036C24.7834 14.6076 24.0574 15.0256 23.3534 14.8386C22.7154 14.6736 22.0664 14.5856 21.4064 14.5856C17.2814 14.5856 13.9264 17.9406 13.9264 22.0656C13.9264 26.1906 17.2814 29.5456 21.4064 29.5456C25.5314 29.5456 28.8864 26.1906 28.8864 22.0656C28.8864 21.6256 28.8424 21.1856 28.7764 20.7566C28.6444 20.0416 29.1284 19.3486 29.8434 19.2276C30.5584 19.0956 31.2514 19.5796 31.3724 20.2946C31.4714 20.8776 31.5264 21.4716 31.5264 22.0656C31.5154 27.6316 26.9724 32.1746 21.3954 32.1746Z" fill="#959595"/>
<path d="M23.0124 21.8245C22.6494 21.8245 22.2864 21.6705 22.0224 21.3845C21.5384 20.8345 21.5824 20.0095 22.1324 19.5255L28.8864 13.5195C29.4364 13.0355 30.2614 13.0795 30.7454 13.6295C31.2294 14.1795 31.1854 15.0045 30.6354 15.4885L23.8814 21.4945C23.6394 21.7145 23.3314 21.8245 23.0124 21.8245Z" fill="#959595"/>
<path d="M34.9794 16.6975C34.8804 16.6975 34.7704 16.6865 34.6714 16.6645L29.8424 15.4875C29.3914 15.3775 29.0284 15.0365 28.8964 14.5965L27.3674 9.64653C27.2244 9.17353 27.3454 8.66753 27.6974 8.32653L32.9004 3.12353C33.2194 2.80453 33.6924 2.67253 34.1324 2.77153C34.5724 2.88153 34.9354 3.20053 35.0784 3.64053L36.4424 7.69953L40.4794 9.04153C40.9084 9.18453 41.2384 9.54753 41.3484 9.98753C41.4584 10.4275 41.3154 10.9005 40.9964 11.2195L35.9144 16.3015C35.6614 16.5545 35.3204 16.6865 34.9794 16.6975ZM31.1844 13.0895L34.5724 13.9145L37.6194 10.8675L34.9574 9.97653C34.5614 9.84453 34.2534 9.53653 34.1214 9.14053L33.2304 6.47853L30.0954 9.60253L31.1844 13.0895Z" fill="#959595"/>
</svg>
