<svg width="21" height="19" viewBox="0 0 21 19" fill="none" xmlns="http://www.w3.org/2000/svg">
<path d="M17.3704 14.5656C17.932 13.7934 18.2128 12.8808 18.2128 11.9331C18.2128 9.44096 16.177 7.40513 13.6849 7.40513C11.1927 7.40513 9.15692 9.44096 9.15692 11.9331C9.15692 14.4252 11.1927 16.4611 13.6849 16.4611C14.6326 16.4611 15.5452 16.1802 16.3174 15.6186L18.985 18.2863C19.1254 18.4267 19.3009 18.4969 19.5116 18.4969C19.7222 18.4969 19.8977 18.4267 20.0381 18.2863C20.1785 18.1459 20.2487 17.9704 20.2487 17.7598C20.2487 17.5492 20.1785 17.3737 20.0381 17.2333L17.3704 14.5656ZM13.6849 14.9517C12.0001 14.9517 10.6311 13.5828 10.6311 11.898C10.6311 10.2132 12.0001 8.84425 13.6849 8.84425C15.3697 8.84425 16.7386 10.2132 16.7386 11.898C16.7386 13.5828 15.3697 14.9517 13.6849 14.9517ZM17.1949 4.9481C17.1949 4.562 16.879 4.24609 16.4929 4.24609H4.27796C3.89185 4.24609 3.57595 4.562 3.57595 4.9481C3.57595 5.33421 3.89185 5.65011 4.27796 5.65011H16.528C16.879 5.65011 17.1949 5.36931 17.1949 4.9481ZM4.13756 8.70385C3.75145 8.70385 3.43555 9.01975 3.43555 9.40586C3.43555 9.79196 3.75145 10.1079 4.13756 10.1079H6.66479C7.05089 10.1079 7.3668 9.79196 7.3668 9.40586C7.3668 9.01975 7.05089 8.70385 6.66479 8.70385H4.13756Z" fill="#ADADAD"/>
<path d="M18.884 0H1.75502C0.80731 0 0 0.77221 0 1.75502V16.9535C0 17.9012 0.77221 18.7085 1.75502 18.7085H12.6362C13.0223 18.7085 13.3382 18.3926 13.3382 18.0065C13.3382 17.6204 13.0223 17.3045 12.6362 17.3045H1.75502C1.57952 17.3045 1.40402 17.1641 1.40402 16.9535V1.75502C1.40402 1.57952 1.54442 1.40402 1.75502 1.40402H18.884C19.0595 1.40402 19.235 1.54442 19.235 1.75502V10.4599C19.235 10.846 19.551 11.1619 19.9371 11.1619C20.3232 11.1619 20.6391 10.846 20.6391 10.4599V1.75502C20.6391 0.77221 19.8318 0 18.884 0Z" fill="#ADADAD"/>
</svg>
