<svg width="18" height="21" viewBox="0 0 18 21" fill="none" xmlns="http://www.w3.org/2000/svg">
<path d="M14.3769 12.6012C14.0806 12.3822 13.7711 12.1814 13.4499 12C12.7599 12.8393 12.7599 12.8393 12.4663 13.1294C12.4663 13.1294 12.6768 13.3424 13.4499 13.9999C14.8147 15.1605 15.6953 16.8652 15.6953 19.5127C15.6935 19.2973 15.6964 19.3359 15.6953 19.5127L2.19239 19.5127C2.19113 19.3359 2.19239 19.5718 2.19239 19.5127C2.19239 16.865 2.77947 15.7408 4.54072 13.9999C4.86782 13.6766 5.35051 13.3039 5.71488 13.1294C5.42134 12.8393 4.87246 12.279 4.55026 12.0019C4.22902 12.1829 3.91945 12.3834 3.62333 12.6022C1.426 14.2257 0 16.814 0 19.7282C0 19.7873 0.00339859 19.8629 0.00447185 19.922C0.0114854 20.2826 0.0396762 20.6426 0.0889017 21H17.9109C17.9599 20.6464 17.9884 20.2813 17.9957 19.9216C17.9968 19.8626 18 19.7956 18 19.7362C18.0002 16.8221 16.574 14.2246 14.3769 12.6012Z" fill="#959595"/>
<path d="M9.5 13C13.0841 13 16 10.0839 16 6.5C16 2.9159 13.0841 0 9.5 0C5.9159 0 3 2.9159 3 6.5C3 10.0841 5.9159 13 9.5 13ZM9.5 1.77273C12.3762 1.77273 14.2273 3.62425 14.2273 6.5C14.2273 9.37575 12.3758 11.2273 9.5 11.2273C6.62425 11.2273 4.77273 9.37575 4.77273 6.5C4.77273 3.62445 6.62425 1.77273 9.5 1.77273Z" fill="#959595"/>
</svg>
