<svg width="30" height="35" viewBox="0 0 30 35" fill="none" xmlns="http://www.w3.org/2000/svg">
<path d="M23.8607 20.5484C23.3691 20.1807 22.8553 19.8436 22.3223 19.5391C21.1771 20.9483 21.1771 20.9483 20.6899 21.4354C20.6899 21.4354 21.0391 21.793 22.3223 22.897C24.5873 24.8457 26.0489 27.708 26.0489 32.1534C26.046 31.7916 26.0507 31.8565 26.0489 32.1534L3.63862 32.1534C3.63654 31.8565 3.63862 32.2526 3.63862 32.1534C3.63862 27.7077 4.61298 25.8201 7.53606 22.897C8.07893 22.3541 8.88004 21.7285 9.48478 21.4354C8.9976 20.9483 8.08665 20.0076 7.55191 19.5423C7.01876 19.8462 6.50497 20.1828 6.0135 20.5502C2.36669 23.2761 0 27.6221 0 32.5152C0 32.6143 0.00564051 32.7414 0.00742176 32.8405C0.019062 33.4461 0.065849 34.0505 0.147547 34.6506H29.7261C29.8074 34.0568 29.8546 33.4438 29.8668 32.84C29.8686 32.7408 29.8739 32.6283 29.8739 32.5285C29.8742 27.6357 27.5072 23.2743 23.8607 20.5484Z" fill="white"/>
<path d="M14.8441 20.4615C20.4853 20.4615 25.0748 15.8717 25.0748 10.2308C25.0748 4.58952 20.4853 0 14.8441 0C9.2028 0 4.61328 4.58952 4.61328 10.2308C4.61328 15.872 9.2028 20.4615 14.8441 20.4615ZM14.8441 2.79021C19.371 2.79021 22.2846 5.70444 22.2846 10.2308C22.2846 14.7571 19.3704 17.6713 14.8441 17.6713C10.3177 17.6713 7.40349 14.7571 7.40349 10.2308C7.40349 5.70475 10.3177 2.79021 14.8441 2.79021Z" fill="white"/>
</svg>
