<svg width="29" height="25" viewBox="0 0 29 25" fill="none" xmlns="http://www.w3.org/2000/svg">
<path d="M10.8759 16.2877C11.0356 16.8539 11.3713 17.3371 11.8221 17.6495C12.2728 17.9619 12.8086 18.0828 13.3321 17.99C13.8556 17.8973 14.332 17.5972 14.6748 17.1443C15.0175 16.6913 15.2038 16.1156 15.1999 15.5218C15.1959 14.928 15.0019 14.3555 14.6531 13.9084C14.3044 13.4612 13.824 13.1691 13.2993 13.0852C12.7747 13.0013 12.2405 13.1311 11.794 13.451C11.3475 13.7709 11.0183 14.2597 10.8662 14.8286L10.8625 14.8463H4.33916C4.20284 14.3326 3.92249 13.8817 3.53964 13.5604C3.15679 13.2391 2.69177 13.0645 2.21344 13.0624H2.20978C1.62371 13.0624 1.06164 13.3232 0.64723 13.7875C0.232816 14.2519 0 14.8817 0 15.5383V15.5561C0.000934909 16.147 0.190248 16.7181 0.533808 17.1664C0.877368 17.6147 1.35257 17.9108 1.87375 18.0012C2.39492 18.0916 2.92778 17.9704 3.37625 17.6595C3.82472 17.3486 4.1593 16.8683 4.31967 16.3054L4.32333 16.2877H10.8759ZM22.1953 3.0588H23.997V4.49743H22.1953V3.0588ZM24.5257 3.0588H26.3274V4.49743H24.5257V3.0588ZM10.8625 23.5627H12.663V25H10.8625V23.5627ZM13.1783 23.5627H14.9788V25H13.1783V23.5627ZM15.4953 23.5627H17.297V25H15.4953V23.5627ZM4.73751 12.6474H6.53676V14.0874H4.73751V12.6474ZM7.05449 12.6474H8.85375V14.0874H7.05449V12.6474ZM9.37026 12.6474H11.1719V14.0874H9.37026V12.6474ZM17.1776 13.0951H18.9793V14.5337H17.1776V13.0951ZM19.4946 13.0951H21.295V14.5337H19.4946V13.0951ZM21.8103 13.0951H23.612V14.5337H21.8103V13.0951ZM6.33089 0H8.13136V1.43863H6.33089V0ZM8.64787 0H10.4483V1.43863H8.64787V0ZM10.9649 0H12.7665V1.43863H10.9649V0ZM2.30358 5.32594C3.26107 5.32594 4.0736 4.62983 4.38424 3.68803H9.45918C9.72596 3.68803 10.1828 3.90233 10.3314 4.13436L13.3415 9.44256C13.7715 10.1687 14.701 10.5673 15.3491 10.5673H18.3738C18.5458 11.0049 18.8275 11.3771 19.1848 11.6386C19.5421 11.9001 19.9595 12.0395 20.3863 12.04H20.3985C20.689 12.04 20.9766 11.9759 21.245 11.8513C21.5134 11.7268 21.7573 11.5442 21.9627 11.314C22.1682 11.0839 22.3311 10.8106 22.4423 10.5099C22.5535 10.2091 22.6107 9.88682 22.6107 9.56131V9.55722C22.6664 9.21767 22.6583 8.86883 22.587 8.53296C22.5157 8.1971 22.3826 7.88158 22.1964 7.60654C22.0102 7.33149 21.7748 7.10297 21.5053 6.93554C21.2359 6.76811 20.9382 6.66545 20.6314 6.63412C20.3245 6.60279 20.0152 6.64346 19.7231 6.75355C19.4311 6.86365 19.1627 7.04073 18.9352 7.27352C18.7077 7.50631 18.5259 7.78969 18.4016 8.10557C18.2772 8.42146 18.213 8.76291 18.213 9.10816V9.11089H15.3503C15.0251 9.11089 14.567 8.89659 14.4367 8.66456L11.4399 3.3741C11.0258 2.63021 10.1706 2.28079 9.50547 2.28079H4.45855C4.34674 1.7362 4.07353 1.25012 3.6835 0.901851C3.29347 0.553577 2.80963 0.363658 2.31089 0.36307H2.29993C1.71386 0.36307 1.15179 0.623932 0.737376 1.08827C0.322961 1.5526 0.0901455 2.18238 0.0901455 2.83905V2.84997C0.0901455 4.21762 1.07931 5.32594 2.29993 5.32594H2.30358ZM15.4953 6.03571C15.9316 6.03434 16.358 5.88954 16.7215 5.61926C17.0851 5.34897 17.3699 4.96509 17.5406 4.51518L17.5467 4.4988H21.6946V3.0588H17.6807C17.5752 2.50079 17.3026 1.99994 16.9083 1.63924C16.5139 1.27855 16.0214 1.07967 15.5123 1.07556H15.5111C14.2856 1.07556 13.2977 2.18115 13.2977 3.55427V3.57338C13.2977 4.93285 14.282 6.03571 15.4953 6.03571ZM10.5361 8.92799V8.92389C10.5361 8.26722 10.3032 7.63745 9.88882 7.17311C9.47441 6.70878 8.91234 6.44792 8.32627 6.44792H8.31896C7.73289 6.44792 7.17083 6.70878 6.75641 7.17311C6.342 7.63745 6.10918 8.26722 6.10918 8.92389V8.92799C6.10918 10.3011 7.09713 11.4094 8.32262 11.4094C8.90938 11.4076 9.47162 11.1456 9.88641 10.6806C10.3012 10.2155 10.5348 9.58543 10.5361 8.92799ZM26.1361 13.6247H26.1251C25.648 13.6245 25.1838 13.7988 24.803 14.121C24.4222 14.4432 24.1457 14.8957 24.0152 15.41L24.0116 15.4278H19.8795C19.2156 15.4278 18.4031 15.5274 17.9463 16.2713L14.9349 21.2956C14.8021 21.529 14.3587 21.7446 14.0201 21.7446H10.3009C10.1607 21.2396 9.88094 20.7976 9.50193 20.4823C9.12291 20.1671 8.66429 19.9949 8.19227 19.9907H8.18862C7.60255 19.9907 7.04048 20.2516 6.62607 20.7159C6.21165 21.1803 5.97884 21.81 5.97884 22.4667V22.4708C5.97884 23.8425 6.96678 24.9509 8.19106 24.9509C9.19484 24.9509 10.0366 24.2056 10.3168 23.1819H13.992C14.6693 23.1819 15.5866 22.8161 15.9984 22.105L19.0097 17.0643C19.0243 17.0316 19.1425 16.8978 19.8807 16.8978H24.0579C24.3515 17.8737 25.1786 18.5698 26.1519 18.5698H26.1544C26.7407 18.5695 27.3029 18.3083 27.7174 17.8438C28.132 17.3793 28.365 16.7494 28.3654 16.0925V16.0884C28.3543 15.4332 28.115 14.8089 27.6988 14.3486C27.2825 13.8883 26.7221 13.6285 26.1373 13.6247H26.1361ZM20.0854 19.5935H20.0842C19.4975 19.5935 18.9348 19.8547 18.5199 20.3195C18.105 20.7844 17.8719 21.4148 17.8719 22.0722V22.0763C17.8719 23.4481 18.8599 24.5537 20.0854 24.5537C21.3109 24.5537 22.2976 23.4467 22.2976 22.0763C22.2976 20.7032 21.3109 19.5935 20.0854 19.5935Z" fill="white"/>
</svg>
