<svg width="34" height="33" viewBox="0 0 34 33" fill="none" xmlns="http://www.w3.org/2000/svg">
<path d="M24.2313 6.7207C22.9591 6.7207 21.9207 7.75912 21.9207 9.03269C21.9207 9.45203 22.0397 9.84019 22.2394 10.1802L19.4784 13.1693L20.5522 14.1596L23.3232 11.1534C23.6023 11.2739 23.9125 11.3433 24.2313 11.3433C25.5048 11.3433 26.5418 10.3049 26.5418 9.03269C26.5426 8.72911 26.4834 8.42836 26.3676 8.14771C26.2519 7.86705 26.0819 7.61201 25.8673 7.39721C25.6528 7.18241 25.398 7.01208 25.1174 6.89599C24.8369 6.7799 24.5363 6.72033 24.2327 6.7207H24.2313ZM24.2313 9.88552C24.0054 9.88441 23.7891 9.7942 23.6294 9.6345C23.4698 9.47481 23.3795 9.25853 23.3784 9.03269C23.3784 8.56378 23.7609 8.17845 24.2313 8.17845C24.7002 8.17845 25.0855 8.56378 25.0855 9.03269C25.0859 9.14491 25.064 9.2561 25.0212 9.35983C24.9784 9.46356 24.9155 9.55779 24.8361 9.63708C24.7566 9.71636 24.6623 9.77914 24.5585 9.82178C24.4547 9.86442 24.3435 9.88609 24.2313 9.88552ZM17.4327 15.9658L16.6677 16.7946C16.3487 16.6109 15.9875 16.5133 15.6194 16.5112C15.3502 16.5112 15.0952 16.5651 14.8558 16.66L11.8581 12.2372C11.8525 12.2273 11.8383 12.223 11.8326 12.2117C12.167 11.8873 12.3766 11.4325 12.3766 10.9339C12.3635 10.4686 12.1695 10.0268 11.8358 9.70232C11.5021 9.37787 11.055 9.19635 10.5895 9.19635C10.1241 9.19635 9.67698 9.37787 9.34326 9.70232C9.00954 10.0268 8.81551 10.4686 8.80241 10.9339C8.80241 11.288 8.91291 11.6238 9.09282 11.8972L5.65317 15.3326C5.34772 15.1037 4.97659 14.9795 4.59493 14.9784C4.12966 14.9915 3.68785 15.1855 3.3634 15.5193C3.03894 15.853 2.85742 16.3001 2.85742 16.7655C2.85742 17.231 3.03894 17.6781 3.3634 18.0118C3.68785 18.3455 4.12966 18.5396 4.59493 18.5527C4.88676 18.5522 5.17404 18.4803 5.43169 18.3432C5.68934 18.2062 5.90953 18.0081 6.07301 17.7664C6.2365 17.5247 6.33833 17.2466 6.3696 16.9564C6.40088 16.6663 6.36064 16.3729 6.25242 16.1018L9.81674 12.5361C10.0505 12.6508 10.3097 12.716 10.5846 12.716C10.7305 12.716 10.8693 12.6962 11.0039 12.6622C11.0181 12.7018 11.0294 12.7415 11.0549 12.7755L14.054 17.1955C13.6896 17.587 13.4862 18.1014 13.4845 18.6362C13.4848 19.2031 13.7102 19.7466 14.111 20.1474C14.5118 20.5483 15.0554 20.7736 15.6222 20.774C16.0097 20.7727 16.3896 20.6661 16.7212 20.4657C17.0529 20.2653 17.3239 19.9786 17.5053 19.6362C17.6867 19.2938 17.7717 18.9085 17.7511 18.5215C17.7306 18.1346 17.6054 17.7605 17.3888 17.4392L18.1481 16.6147L17.4341 15.9658H17.4327ZM4.59351 17.5879C4.37634 17.5879 4.16807 17.5016 4.01451 17.3481C3.86095 17.1945 3.77468 16.9862 3.77468 16.7691C3.77468 16.5519 3.86095 16.3436 4.01451 16.1901C4.16807 16.0365 4.37634 15.9502 4.59351 15.9502C4.81068 15.9502 5.01895 16.0365 5.17251 16.1901C5.32607 16.3436 5.41234 16.5519 5.41234 16.7691C5.41234 16.9862 5.32607 17.1945 5.17251 17.3481C5.01895 17.5016 4.81068 17.5879 4.59351 17.5879ZM10.5888 11.7527C10.3716 11.7527 10.1634 11.6664 10.0098 11.5129C9.85626 11.3593 9.76999 11.151 9.76999 10.9339C9.76999 10.7167 9.85626 10.5084 10.0098 10.3549C10.1634 10.2013 10.3716 10.115 10.5888 10.115C10.806 10.115 11.0143 10.2013 11.1678 10.3549C11.3214 10.5084 11.4076 10.7167 11.4076 10.9339C11.4076 11.151 11.3214 11.3593 11.1678 11.5129C11.0143 11.6664 10.806 11.7527 10.5888 11.7527Z" fill="#707070"/>
<path d="M33.7564 20.4991L30.3975 15.6258C31.3043 14.7834 32.0276 13.7632 32.5224 12.6288C33.0172 11.4944 33.2728 10.2702 33.2734 9.03263C33.2736 7.24637 32.7442 5.50013 31.752 4.01477C30.7598 2.52941 29.3494 1.37164 27.6992 0.687871C26.049 0.0041025 24.2331 -0.174948 22.4811 0.173364C20.7291 0.521675 19.1198 1.3817 17.8566 2.64468C16.5934 3.90766 15.7332 5.51687 15.3846 7.26879C15.036 9.02071 15.2148 10.8367 15.8983 12.487C16.5818 14.1373 17.7393 15.5479 19.2245 16.5403C20.7097 17.5327 22.4559 18.0624 24.2422 18.0624C25.5809 18.0624 26.8488 17.7635 27.9864 17.2436L31.3708 22.1452C31.8099 22.7799 32.6883 22.94 33.3229 22.5051L33.4023 22.4512C33.7052 22.237 33.9119 21.9125 33.9782 21.5475C34.0444 21.1825 33.9648 20.806 33.7564 20.4991ZM24.2322 16.2944C22.3059 16.2944 20.4585 15.5292 19.0964 14.1671C17.7342 12.805 16.969 10.9575 16.969 9.03121C16.969 5.02207 20.2231 1.76375 24.2322 1.76375C26.1287 1.80962 27.9321 2.59521 29.2571 3.95272C30.5822 5.31024 31.324 7.13207 31.324 9.02909C31.324 10.9261 30.5822 12.7479 29.2571 14.1055C27.9321 15.463 26.1287 16.2486 24.2322 16.2944Z" fill="#707070"/>
<path d="M26.8556 24.0239C26.8553 24.2845 26.7516 24.5344 26.5673 24.7187C26.383 24.903 26.1331 25.0067 25.8725 25.0071H2.92965C2.66902 25.0067 2.41916 24.903 2.23487 24.7187C2.05057 24.5344 1.94687 24.2845 1.94649 24.0239V4.88907C1.94649 4.34508 2.39132 3.90591 2.92965 3.90591H13.9824C14.2563 3.34194 14.5752 2.80092 14.9358 2.28809H2.08674C0.939246 2.28809 0 3.22733 0 4.37483V24.9617C0 26.1092 0.937829 27.0485 2.08674 27.0485H12.9143V29.6339H7.01814C6.71264 29.635 6.41998 29.7569 6.20396 29.9729C5.98795 30.1889 5.86609 30.4815 5.86497 30.787V30.8678C5.86497 31.501 6.38489 32.021 7.01814 32.021H21.7797C22.0852 32.0198 22.3779 31.898 22.5939 31.682C22.8099 31.4659 22.9318 31.1733 22.9329 30.8678V30.787C22.9318 30.4815 22.8099 30.1889 22.5939 29.9729C22.3779 29.7569 22.0852 29.635 21.7797 29.6339H15.8836V27.0485H26.7111C27.8586 27.0485 28.7979 26.1092 28.7979 24.9617V20.733C28.1745 20.9427 27.5257 21.1084 26.857 21.2133V24.0239H26.8556Z" fill="#707070"/>
</svg>
