<svg width="261" height="27" viewBox="0 0 261 27" fill="none" xmlns="http://www.w3.org/2000/svg">
<path d="M4.30575 -0.000355721V20.3633H0.000355095V-0.000355721H4.30575ZM12.0043 11.5337V20.3633H7.76847V5.09055H11.8054V7.78516H11.9844C12.3224 6.8969 12.8892 6.19425 13.6847 5.6772C14.4801 5.15353 15.4446 4.89169 16.5781 4.89169C17.6387 4.89169 18.5634 5.1237 19.3523 5.58771C20.1411 6.05173 20.7543 6.71461 21.1918 7.57635C21.6293 8.43146 21.848 9.4523 21.848 10.6388V20.3633H17.6122V11.3945C17.6188 10.4599 17.3802 9.73071 16.8963 9.20703C16.4124 8.67673 15.7462 8.41158 14.8977 8.41158C14.3277 8.41158 13.8239 8.53421 13.3864 8.77947C12.9555 9.02474 12.6174 9.38269 12.3722 9.85334C12.1335 10.3174 12.0109 10.8775 12.0043 11.5337ZM33.31 5.09055V8.27237H24.1126V5.09055H33.31ZM26.2006 1.43146H30.4364V15.6701C30.4364 16.0612 30.4961 16.3661 30.6154 16.5849C30.7347 16.797 30.9004 16.9461 31.1126 17.0323C31.3313 17.1185 31.5832 17.1616 31.8683 17.1616C32.0671 17.1616 32.266 17.145 32.4648 17.1119C32.6637 17.0721 32.8162 17.0423 32.9222 17.0224L33.5884 20.1744C33.3763 20.2406 33.078 20.3169 32.6935 20.4031C32.3091 20.4959 31.8417 20.5522 31.2915 20.5721C30.2707 20.6119 29.3758 20.476 28.6069 20.1644C27.8446 19.8529 27.2513 19.369 26.8271 18.7127C26.4028 18.0565 26.194 17.2279 26.2006 16.2269V1.43146ZM42.8654 20.6616C41.2944 20.6616 39.9421 20.3434 38.8086 19.707C37.6817 19.064 36.8133 18.1559 36.2035 16.9826C35.5936 15.8027 35.2887 14.4073 35.2887 12.7965C35.2887 11.2255 35.5936 9.84671 36.2035 8.66016C36.8133 7.4736 37.6718 6.54889 38.7788 5.88601C39.8924 5.22313 41.1983 4.89169 42.6964 4.89169C43.704 4.89169 44.6419 5.0541 45.5103 5.37891C46.3853 5.69709 47.1476 6.17767 47.7972 6.82067C48.4535 7.46366 48.9639 8.27237 49.3285 9.2468C49.6931 10.2146 49.8754 11.3481 49.8754 12.6474V13.8107H36.979V11.1857H45.8881C45.8881 10.5759 45.7556 10.0356 45.4904 9.56499C45.2253 9.09434 44.8574 8.72644 44.3867 8.46129C43.9227 8.18951 43.3825 8.05362 42.766 8.05362C42.123 8.05362 41.5529 8.20277 41.0558 8.50106C40.5652 8.79273 40.1808 9.18714 39.9023 9.6843C39.6239 10.1748 39.4814 10.7217 39.4748 11.3249V13.8207C39.4748 14.5763 39.614 15.2293 39.8924 15.7795C40.1774 16.3297 40.5785 16.7539 41.0955 17.0522C41.6126 17.3505 42.2257 17.4996 42.935 17.4996C43.4057 17.4996 43.8365 17.4334 44.2276 17.3008C44.6187 17.1682 44.9535 16.9693 45.2319 16.7042C45.5103 16.439 45.7224 16.1142 45.8683 15.7298L49.7859 15.9883C49.587 16.9296 49.1793 17.7515 48.5629 18.4542C47.953 19.1502 47.1642 19.6938 46.1964 20.0849C45.2352 20.4693 44.1249 20.6616 42.8654 20.6616ZM52.6396 20.3633V5.09055H56.7461V7.75533H56.9052C57.1836 6.80741 57.6509 6.0915 58.3072 5.6076C58.9634 5.11707 59.7191 4.8718 60.5742 4.8718C60.7863 4.8718 61.015 4.88506 61.2603 4.91158C61.5056 4.93809 61.721 4.97455 61.9066 5.02095V8.77947C61.7077 8.71981 61.4326 8.66678 61.0813 8.62038C60.73 8.57398 60.4085 8.55078 60.1168 8.55078C59.4937 8.55078 58.9369 8.68667 58.4464 8.95845C57.9625 9.2236 57.578 9.59481 57.293 10.0721C57.0146 10.5494 56.8754 11.0996 56.8754 11.7227V20.3633H52.6396ZM71.3949 20.3633H64.1761V-0.000355721H71.4545C73.5028 -0.000355721 75.2661 0.407315 76.7443 1.22266C78.2225 2.03137 79.3594 3.19472 80.1548 4.71271C80.9569 6.23071 81.358 8.04699 81.358 10.1616C81.358 12.2828 80.9569 14.1057 80.1548 15.6303C79.3594 17.1549 78.2159 18.3249 76.7244 19.1403C75.2396 19.9556 73.4631 20.3633 71.3949 20.3633ZM68.4815 16.6744H71.2159C72.4886 16.6744 73.5592 16.449 74.4276 15.9982C75.3026 15.5408 75.9588 14.8349 76.3963 13.8803C76.8404 12.9192 77.0625 11.6796 77.0625 10.1616C77.0625 8.65684 76.8404 7.4272 76.3963 6.47266C75.9588 5.51811 75.3059 4.81546 74.4375 4.3647C73.5691 3.91394 72.4986 3.68857 71.2259 3.68857H68.4815V16.6744ZM91.4279 20.6616C89.8569 20.6616 88.5046 20.3434 87.3711 19.707C86.2442 19.064 85.3758 18.1559 84.766 16.9826C84.1561 15.8027 83.8512 14.4073 83.8512 12.7965C83.8512 11.2255 84.1561 9.84671 84.766 8.66016C85.3758 7.4736 86.2343 6.54889 87.3413 5.88601C88.4549 5.22313 89.7608 4.89169 91.2589 4.89169C92.2665 4.89169 93.2044 5.0541 94.0728 5.37891C94.9478 5.69709 95.7101 6.17767 96.3597 6.82067C97.016 7.46366 97.5264 8.27237 97.891 9.2468C98.2556 10.2146 98.4379 11.3481 98.4379 12.6474V13.8107H85.5415V11.1857H94.4506C94.4506 10.5759 94.3181 10.0356 94.0529 9.56499C93.7878 9.09434 93.4199 8.72644 92.9492 8.46129C92.4852 8.18951 91.945 8.05362 91.3285 8.05362C90.6855 8.05362 90.1154 8.20277 89.6183 8.50106C89.1277 8.79273 88.7433 9.18714 88.4648 9.6843C88.1864 10.1748 88.0439 10.7217 88.0373 11.3249V13.8207C88.0373 14.5763 88.1765 15.2293 88.4549 15.7795C88.7399 16.3297 89.141 16.7539 89.658 17.0522C90.1751 17.3505 90.7882 17.4996 91.4975 17.4996C91.9682 17.4996 92.399 17.4334 92.7901 17.3008C93.1812 17.1682 93.516 16.9693 93.7944 16.7042C94.0728 16.439 94.2849 16.1142 94.4308 15.7298L98.3484 15.9883C98.1495 16.9296 97.7418 17.7515 97.1254 18.4542C96.5155 19.1502 95.7267 19.6938 94.7589 20.0849C93.7977 20.4693 92.6874 20.6616 91.4279 20.6616ZM108.162 20.6616C106.591 20.6616 105.239 20.3434 104.105 19.707C102.979 19.064 102.11 18.1559 101.5 16.9826C100.891 15.8027 100.586 14.4073 100.586 12.7965C100.586 11.2255 100.891 9.84671 101.5 8.66016C102.11 7.4736 102.969 6.54889 104.076 5.88601C105.189 5.22313 106.495 4.89169 107.993 4.89169C109.001 4.89169 109.939 5.0541 110.807 5.37891C111.682 5.69709 112.444 6.17767 113.094 6.82067C113.75 7.46366 114.261 8.27237 114.625 9.2468C114.99 10.2146 115.172 11.3481 115.172 12.6474V13.8107H102.276V11.1857H111.185C111.185 10.5759 111.052 10.0356 110.787 9.56499C110.522 9.09434 110.154 8.72644 109.684 8.46129C109.22 8.18951 108.679 8.05362 108.063 8.05362C107.42 8.05362 106.85 8.20277 106.353 8.50106C105.862 8.79273 105.478 9.18714 105.199 9.6843C104.921 10.1748 104.778 10.7217 104.772 11.3249V13.8207C104.772 14.5763 104.911 15.2293 105.189 15.7795C105.474 16.3297 105.875 16.7539 106.392 17.0522C106.909 17.3505 107.523 17.4996 108.232 17.4996C108.703 17.4996 109.133 17.4334 109.525 17.3008C109.916 17.1682 110.25 16.9693 110.529 16.7042C110.807 16.439 111.019 16.1142 111.165 15.7298L115.083 15.9883C114.884 16.9296 114.476 17.7515 113.86 18.4542C113.25 19.1502 112.461 19.6938 111.493 20.0849C110.532 20.4693 109.422 20.6616 108.162 20.6616ZM117.936 26.0906V5.09055H122.113V7.65589H122.301C122.487 7.24491 122.756 6.8273 123.107 6.40305C123.465 5.97218 123.929 5.61423 124.499 5.32919C125.076 5.03752 125.792 4.89169 126.647 4.89169C127.76 4.89169 128.788 5.18336 129.729 5.76669C130.67 6.34339 131.423 7.21508 131.986 8.38175C132.55 9.54178 132.831 10.9968 132.831 12.7468C132.831 14.4504 132.556 15.8888 132.006 17.0621C131.462 18.2288 130.72 19.1138 129.779 19.717C128.844 20.3136 127.797 20.6119 126.637 20.6119C125.815 20.6119 125.115 20.476 124.539 20.2042C123.969 19.9324 123.501 19.591 123.137 19.18C122.772 18.7624 122.494 18.3415 122.301 17.9173H122.172V26.0906H117.936ZM122.083 12.7269C122.083 13.6351 122.209 14.4272 122.461 15.1033C122.712 15.7795 123.077 16.3065 123.554 16.6843C124.032 17.0555 124.612 17.2411 125.294 17.2411C125.984 17.2411 126.567 17.0522 127.044 16.6744C127.522 16.2899 127.883 15.7596 128.128 15.0835C128.38 14.4007 128.506 13.6152 128.506 12.7269C128.506 11.8453 128.383 11.0697 128.138 10.4002C127.893 9.73071 127.532 9.20703 127.054 8.82919C126.577 8.45135 125.99 8.26243 125.294 8.26243C124.605 8.26243 124.022 8.44472 123.544 8.8093C123.074 9.17389 122.712 9.69093 122.461 10.3604C122.209 11.0299 122.083 11.8188 122.083 12.7269ZM135.735 20.3633V-0.000355721H143.769C145.307 -0.000355721 146.619 0.274739 147.706 0.824929C148.8 1.36849 149.632 2.14074 150.202 3.14169C150.779 4.13601 151.067 5.30599 151.067 6.65163C151.067 8.00391 150.775 9.16726 150.192 10.1417C149.609 11.1095 148.764 11.8519 147.657 12.369C146.556 12.886 145.224 13.1445 143.659 13.1445H138.28V9.6843H142.963C143.785 9.6843 144.468 9.57161 145.012 9.34624C145.555 9.12086 145.96 8.78279 146.225 8.33203C146.497 7.88127 146.632 7.32114 146.632 6.65163C146.632 5.9755 146.497 5.40542 146.225 4.94141C145.96 4.47739 145.552 4.12606 145.002 3.88743C144.458 3.64216 143.772 3.51953 142.944 3.51953H140.04V20.3633H135.735ZM146.732 11.0962L151.793 20.3633H147.04L142.088 11.0962H146.732ZM160.744 20.6616C159.173 20.6616 157.821 20.3434 156.688 19.707C155.561 19.064 154.692 18.1559 154.082 16.9826C153.473 15.8027 153.168 14.4073 153.168 12.7965C153.168 11.2255 153.473 9.84671 154.082 8.66016C154.692 7.4736 155.551 6.54889 156.658 5.88601C157.771 5.22313 159.077 4.89169 160.575 4.89169C161.583 4.89169 162.521 5.0541 163.389 5.37891C164.264 5.69709 165.027 6.17767 165.676 6.82067C166.332 7.46366 166.843 8.27237 167.207 9.2468C167.572 10.2146 167.754 11.3481 167.754 12.6474V13.8107H154.858V11.1857H163.767C163.767 10.5759 163.634 10.0356 163.369 9.56499C163.104 9.09434 162.736 8.72644 162.266 8.46129C161.802 8.18951 161.261 8.05362 160.645 8.05362C160.002 8.05362 159.432 8.20277 158.935 8.50106C158.444 8.79273 158.06 9.18714 157.781 9.6843C157.503 10.1748 157.36 10.7217 157.354 11.3249V13.8207C157.354 14.5763 157.493 15.2293 157.771 15.7795C158.056 16.3297 158.457 16.7539 158.974 17.0522C159.491 17.3505 160.105 17.4996 160.814 17.4996C161.285 17.4996 161.715 17.4334 162.107 17.3008C162.498 17.1682 162.832 16.9693 163.111 16.7042C163.389 16.439 163.601 16.1142 163.747 15.7298L167.665 15.9883C167.466 16.9296 167.058 17.7515 166.442 18.4542C165.832 19.1502 165.043 19.6938 164.075 20.0849C163.114 20.4693 162.004 20.6616 160.744 20.6616ZM183.226 9.44567L179.348 9.6843C179.282 9.35286 179.139 9.05457 178.92 8.78942C178.702 8.51764 178.413 8.3022 178.055 8.14311C177.704 7.97739 177.283 7.89453 176.793 7.89453C176.136 7.89453 175.583 8.03374 175.132 8.31214C174.681 8.58392 174.456 8.94851 174.456 9.40589C174.456 9.77048 174.602 10.0787 174.893 10.3306C175.185 10.5825 175.686 10.7847 176.395 10.9371L179.159 11.494C180.644 11.7989 181.751 12.2894 182.48 12.9656C183.209 13.6417 183.574 14.5299 183.574 15.6303C183.574 16.6313 183.279 17.5096 182.689 18.2653C182.106 19.021 181.304 19.6109 180.283 20.0352C179.268 20.4528 178.098 20.6616 176.773 20.6616C174.751 20.6616 173.14 20.2406 171.94 19.3988C170.747 18.5503 170.048 17.3969 169.842 15.9386L174.009 15.7198C174.134 16.3363 174.439 16.8069 174.923 17.1317C175.407 17.4499 176.027 17.609 176.783 17.609C177.525 17.609 178.122 17.4665 178.572 17.1815C179.03 16.8898 179.262 16.5153 179.268 16.0579C179.262 15.6734 179.099 15.3585 178.781 15.1133C178.463 14.8614 177.973 14.6692 177.31 14.5366L174.665 14.0096C173.173 13.7113 172.063 13.1942 171.334 12.4585C170.611 11.7227 170.25 10.7847 170.25 9.64453C170.25 8.66347 170.515 7.8183 171.045 7.10902C171.582 6.39974 172.335 5.85286 173.303 5.46839C174.277 5.08393 175.417 4.89169 176.723 4.89169C178.652 4.89169 180.17 5.29936 181.277 6.1147C182.391 6.93004 183.04 8.04036 183.226 9.44567ZM193.201 20.6616C191.63 20.6616 190.278 20.3434 189.145 19.707C188.018 19.064 187.149 18.1559 186.539 16.9826C185.93 15.8027 185.625 14.4073 185.625 12.7965C185.625 11.2255 185.93 9.84671 186.539 8.66016C187.149 7.4736 188.008 6.54889 189.115 5.88601C190.228 5.22313 191.534 4.89169 193.032 4.89169C194.04 4.89169 194.978 5.0541 195.846 5.37891C196.721 5.69709 197.484 6.17767 198.133 6.82067C198.789 7.46366 199.3 8.27237 199.664 9.2468C200.029 10.2146 200.211 11.3481 200.211 12.6474V13.8107H187.315V11.1857H196.224C196.224 10.5759 196.092 10.0356 195.826 9.56499C195.561 9.09434 195.193 8.72644 194.723 8.46129C194.259 8.18951 193.718 8.05362 193.102 8.05362C192.459 8.05362 191.889 8.20277 191.392 8.50106C190.901 8.79273 190.517 9.18714 190.238 9.6843C189.96 10.1748 189.817 10.7217 189.811 11.3249V13.8207C189.811 14.5763 189.95 15.2293 190.228 15.7795C190.513 16.3297 190.914 16.7539 191.431 17.0522C191.949 17.3505 192.562 17.4996 193.271 17.4996C193.742 17.4996 194.172 17.4334 194.564 17.3008C194.955 17.1682 195.289 16.9693 195.568 16.7042C195.846 16.439 196.058 16.1142 196.204 15.7298L200.122 15.9883C199.923 16.9296 199.515 17.7515 198.899 18.4542C198.289 19.1502 197.5 19.6938 196.532 20.0849C195.571 20.4693 194.461 20.6616 193.201 20.6616ZM207.331 20.6516C206.356 20.6516 205.488 20.4826 204.725 20.1445C203.963 19.7998 203.36 19.2927 202.916 18.6232C202.478 17.9471 202.26 17.1052 202.26 16.0977C202.26 15.2492 202.415 14.5366 202.727 13.9599C203.038 13.3832 203.463 12.9192 204 12.5678C204.537 12.2165 205.146 11.9513 205.829 11.7724C206.519 11.5934 207.241 11.4674 207.997 11.3945C208.885 11.3017 209.601 11.2156 210.145 11.136C210.688 11.0498 211.083 10.9239 211.328 10.7582C211.573 10.5924 211.696 10.3472 211.696 10.0224V9.96271C211.696 9.33298 211.497 8.84576 211.099 8.50106C210.708 8.15637 210.151 7.98402 209.429 7.98402C208.666 7.98402 208.06 8.15305 207.609 8.49112C207.158 8.82256 206.86 9.24018 206.714 9.74396L202.797 9.42578C202.995 8.49775 203.386 7.69567 203.97 7.01953C204.553 6.33677 205.306 5.81309 206.227 5.44851C207.155 5.0773 208.229 4.89169 209.449 4.89169C210.297 4.89169 211.109 4.99112 211.885 5.18999C212.667 5.38885 213.359 5.69709 213.963 6.1147C214.573 6.53231 215.053 7.06925 215.404 7.7255C215.756 8.37512 215.931 9.154 215.931 10.0621V20.3633H211.914V18.2454H211.795C211.55 18.7227 211.222 19.1436 210.811 19.5082C210.4 19.8661 209.906 20.1478 209.329 20.3533C208.752 20.5522 208.086 20.6516 207.331 20.6516ZM208.544 17.7283C209.167 17.7283 209.717 17.6057 210.194 17.3604C210.672 17.1085 211.046 16.7705 211.318 16.3462C211.59 15.922 211.725 15.4414 211.725 14.9045V13.2837C211.593 13.3699 211.411 13.4495 211.179 13.5224C210.953 13.5887 210.698 13.6516 210.413 13.7113C210.128 13.7643 209.843 13.814 209.558 13.8604C209.273 13.9002 209.014 13.9367 208.782 13.9698C208.285 14.0427 207.851 14.1587 207.48 14.3178C207.109 14.4769 206.82 14.6924 206.615 14.9641C206.409 15.2293 206.306 15.5607 206.306 15.9585C206.306 16.5352 206.515 16.976 206.933 17.2809C207.357 17.5792 207.894 17.7283 208.544 17.7283ZM219.218 20.3633V5.09055H223.324V7.75533H223.483C223.762 6.80741 224.229 6.0915 224.885 5.6076C225.542 5.11707 226.297 4.8718 227.152 4.8718C227.364 4.8718 227.593 4.88506 227.838 4.91158C228.084 4.93809 228.299 4.97455 228.485 5.02095V8.77947C228.286 8.71981 228.011 8.66678 227.659 8.62038C227.308 8.57398 226.987 8.55078 226.695 8.55078C226.072 8.55078 225.515 8.68667 225.025 8.95845C224.541 9.2236 224.156 9.59481 223.871 10.0721C223.593 10.5494 223.453 11.0996 223.453 11.7227V20.3633H219.218ZM236.864 20.6616C235.3 20.6616 233.954 20.3301 232.827 19.6673C231.707 18.9978 230.845 18.0697 230.242 16.8832C229.646 15.6966 229.347 14.3311 229.347 12.7866C229.347 11.2222 229.649 9.85002 230.252 8.6701C230.862 7.48355 231.727 6.55883 232.847 5.89595C233.968 5.22644 235.3 4.89169 236.844 4.89169C238.177 4.89169 239.344 5.13364 240.344 5.61754C241.345 6.10144 242.138 6.78089 242.721 7.65589C243.304 8.53089 243.626 9.55836 243.685 10.7383H239.688C239.576 9.97597 239.277 9.36281 238.793 8.89879C238.316 8.42815 237.69 8.19283 236.914 8.19283C236.258 8.19283 235.684 8.3718 235.194 8.72976C234.71 9.08108 234.332 9.59482 234.06 10.271C233.789 10.9471 233.653 11.7657 233.653 12.7269C233.653 13.7013 233.785 14.5299 234.05 15.2127C234.322 15.8955 234.703 16.4158 235.194 16.7738C235.684 17.1317 236.258 17.3107 236.914 17.3107C237.398 17.3107 237.832 17.2113 238.217 17.0124C238.608 16.8136 238.929 16.5252 239.181 16.1474C239.44 15.7629 239.609 15.3022 239.688 14.7653H243.685C243.619 15.9319 243.301 16.9594 242.731 17.8477C242.167 18.7293 241.388 19.4187 240.394 19.9158C239.4 20.413 238.223 20.6616 236.864 20.6616ZM250.633 11.5337V20.3633H246.397V-0.000355721H250.514V7.78516H250.693C251.038 6.88364 251.594 6.17767 252.363 5.66726C253.132 5.15021 254.097 4.89169 255.257 4.89169C256.317 4.89169 257.242 5.1237 258.031 5.58771C258.826 6.0451 259.443 6.70466 259.88 7.56641C260.324 8.42152 260.543 9.44567 260.537 10.6388V20.3633H256.301V11.3945C256.307 10.4532 256.069 9.72076 255.585 9.19709C255.108 8.67341 254.438 8.41158 253.576 8.41158C253 8.41158 252.489 8.53421 252.045 8.77947C251.608 9.02474 251.263 9.38269 251.011 9.85334C250.766 10.3174 250.64 10.8775 250.633 11.5337Z" fill="white"/>
</svg>
