<svg width="15" height="15" viewBox="0 0 15 15" fill="none" xmlns="http://www.w3.org/2000/svg">
<g clip-path="url(#clip0_3288_318)">
<path d="M7.5 0C3.375 0 0 3.375 0 7.5C0 11.625 3.375 15 7.5 15C11.625 15 15 11.625 15 7.5C15 3.375 11.625 0 7.5 0ZM7.5 14.0625C3.89062 14.0625 0.9375 11.1094 0.9375 7.5C0.9375 3.89062 3.89062 0.9375 7.5 0.9375C11.1094 0.9375 14.0625 3.89062 14.0625 7.5C14.0625 11.1094 11.1094 14.0625 7.5 14.0625Z" fill="#B22210"/>
<path d="M6.5625 11.7188C6.5625 11.9674 6.66127 12.2058 6.83709 12.3817C7.0129 12.5575 7.25136 12.6562 7.5 12.6562C7.74864 12.6562 7.9871 12.5575 8.16291 12.3817C8.33873 12.2058 8.4375 11.9674 8.4375 11.7188C8.4375 11.4701 8.33873 11.2317 8.16291 11.0558C7.9871 10.88 7.74864 10.7812 7.5 10.7812C7.25136 10.7812 7.0129 10.88 6.83709 11.0558C6.66127 11.2317 6.5625 11.4701 6.5625 11.7188Z" fill="#B22210"/>
<path d="M8.10937 9.84375H6.89062L6.5625 2.34375H8.4375L8.10937 9.84375Z" fill="#B22210"/>
</g>
<defs>
<clipPath id="clip0_3288_318">
<rect width="15" height="15" fill="white"/>
</clipPath>
</defs>
</svg>
