<svg width="18" height="18" viewBox="0 0 18 18" fill="none" xmlns="http://www.w3.org/2000/svg">
<path d="M7.32468 1.37338C10.369 1.37824 12.9149 3.68809 13.2147 6.71753C13.5149 9.74697 11.4714 12.5115 8.48747 13.1132C5.50324 13.7152 2.54819 11.959 1.65063 9.04998C0.753068 6.141 2.20427 3.02515 5.00853 1.84061C5.74129 1.53065 6.52906 1.37173 7.32468 1.37338ZM7.32468 0C3.27951 0 0 3.27951 0 7.32468C0 11.3698 3.27951 14.6494 7.32468 14.6494C11.3698 14.6494 14.6494 11.3698 14.6494 7.32468C14.6494 3.27951 11.3698 0 7.32468 0ZM16.8696 17.5563C16.7794 17.5565 16.69 17.5388 16.6067 17.5042C16.5234 17.4697 16.4477 17.4189 16.3841 17.3549L12.9049 13.8757C12.6448 13.6062 12.6485 13.1778 12.9132 12.9129C13.1781 12.6479 13.6064 12.6442 13.8757 12.9046L17.3549 16.3838C17.4509 16.4799 17.5162 16.6022 17.5427 16.7354C17.5692 16.8685 17.5556 17.0066 17.5037 17.132C17.4519 17.2576 17.364 17.3649 17.2511 17.4404C17.1382 17.516 17.0055 17.5563 16.8696 17.5563Z" fill="white"/>
</svg>
