<svg width="20" height="20" viewBox="0 0 20 20" fill="none" xmlns="http://www.w3.org/2000/svg">
<path d="M8.3444 1.56454C11.8125 1.57008 14.7129 4.20143 15.0545 7.65254C15.3964 11.1037 13.0684 14.2529 9.66907 14.9384C6.26938 15.6242 2.90294 13.6235 1.88042 10.3096C0.857909 6.99576 2.51114 3.44622 5.70581 2.09681C6.54058 1.7437 7.43802 1.56267 8.3444 1.56454ZM8.3444 0C3.73607 0 0 3.73598 0 8.3442C0 12.9524 3.73607 16.6884 8.3444 16.6884C12.9527 16.6884 16.6888 12.9524 16.6888 8.3442C16.6888 3.73598 12.9527 0 8.3444 0ZM19.2182 20C19.1154 20.0002 19.0136 19.98 18.9186 19.9406C18.8237 19.9013 18.7375 19.8434 18.6651 19.7705L14.7015 15.807C14.4052 15.5 14.4094 15.0121 14.7109 14.7102C15.0127 14.4084 15.5007 14.4042 15.8074 14.7008L19.771 18.6643C19.8804 18.7737 19.9548 18.913 19.985 19.0648C20.0151 19.2165 19.9997 19.3737 19.9405 19.5166C19.8815 19.6596 19.7813 19.7819 19.6527 19.868C19.5241 19.954 19.3729 20 19.2182 20Z" fill="#959595"/>
</svg>
