<svg width="20" height="20" viewBox="0 0 20 20" fill="none" xmlns="http://www.w3.org/2000/svg">
<path d="M9.54545 0C4.27364 0 0 4.27364 0 9.54545C0 14.8173 4.27364 19.0909 9.54545 19.0909C14.8173 19.0909 19.0909 14.8173 19.0909 9.54545C19.0909 4.27364 14.8173 0 9.54545 0ZM9.54545 1.36364C14.0568 1.36364 17.7273 5.03409 17.7273 9.54545C17.7273 14.0568 14.0568 17.7273 9.54545 17.7273C5.03409 17.7273 1.36364 14.0568 1.36364 9.54545C1.36364 5.03409 5.03409 1.36364 9.54545 1.36364ZM7.27318 9.59046C7.26674 9.28445 7.32239 8.98031 7.43676 8.6964C7.55114 8.4125 7.72186 8.15472 7.93864 7.93864C8.15467 7.7218 8.41244 7.55103 8.69636 7.43665C8.98027 7.32227 9.28444 7.26666 9.59046 7.27318L14.045 5.04591L11.8177 9.50046C11.8242 9.80646 11.7685 10.1106 11.6542 10.3945C11.5398 10.6784 11.369 10.9362 11.1523 11.1523C10.9362 11.3692 10.6783 11.54 10.3943 11.6544C10.1103 11.7687 9.8061 11.8243 9.5 11.8177L5.04545 14.045L7.27318 9.59046ZM9.54545 8.63636C9.30932 8.64383 9.08537 8.74288 8.92097 8.91256C8.75658 9.08223 8.66466 9.30921 8.66466 9.54545C8.66466 9.7817 8.75658 10.0087 8.92097 10.1784C9.08537 10.348 9.30932 10.4471 9.54545 10.4545C9.78159 10.4471 10.0055 10.348 10.1699 10.1784C10.3343 10.0087 10.4263 9.7817 10.4263 9.54545C10.4263 9.30921 10.3343 9.08223 10.1699 8.91256C10.0055 8.74288 9.78159 8.64383 9.54545 8.63636Z" fill="white"/>
</svg>
